<mxfile host="app.diagrams.net" modified="2020-10-26T12:12:02.917Z" agent="5.0 (Windows NT 10.0; Win64; x64) AppleWebKit/537.36 (KHTML, like Gecko) Chrome/86.0.4240.111 Safari/537.36" etag="tCe-oiOUQ7nO1h2IGGiH" version="13.8.2" type="github">
  <diagram id="C5RBs43oDa-KdzZeNtuy" name="Page-1">
    <mxGraphModel dx="1560" dy="946" grid="1" gridSize="10" guides="1" tooltips="1" connect="1" arrows="1" fold="1" page="1" pageScale="1" pageWidth="827" pageHeight="1169" math="0" shadow="0">
      <root>
        <mxCell id="WIyWlLk6GJQsqaUBKTNV-0" />
        <mxCell id="WIyWlLk6GJQsqaUBKTNV-1" parent="WIyWlLk6GJQsqaUBKTNV-0" />
        <mxCell id="WIyWlLk6GJQsqaUBKTNV-2" value="" style="rounded=0;html=1;jettySize=auto;orthogonalLoop=1;fontSize=11;endArrow=block;endFill=0;endSize=8;strokeWidth=2;shadow=0;labelBackgroundColor=none;edgeStyle=orthogonalEdgeStyle;fillColor=#fff2cc;entryX=0.5;entryY=0;entryDx=0;entryDy=0;" parent="WIyWlLk6GJQsqaUBKTNV-1" source="WIyWlLk6GJQsqaUBKTNV-3" target="hDKh7NUV8Eu-Q5h1_q7I-2" edge="1">
          <mxGeometry relative="1" as="geometry">
            <Array as="points" />
          </mxGeometry>
        </mxCell>
        <mxCell id="WIyWlLk6GJQsqaUBKTNV-3" value="Бронирование отеля" style="rounded=1;whiteSpace=wrap;html=1;fontSize=14;glass=0;strokeWidth=2;shadow=0;fontStyle=1;fillColor=#FFBF78;fontColor=#023253;" parent="WIyWlLk6GJQsqaUBKTNV-1" vertex="1">
          <mxGeometry x="306.5" y="150" width="195" height="50" as="geometry" />
        </mxCell>
        <mxCell id="WIyWlLk6GJQsqaUBKTNV-11" value="Бронирование завершено" style="rounded=1;whiteSpace=wrap;html=1;fontSize=14;glass=0;strokeWidth=2;shadow=0;fontStyle=1;fillColor=#FFBF78;fontColor=#023253;" parent="WIyWlLk6GJQsqaUBKTNV-1" vertex="1">
          <mxGeometry x="344" y="820" width="120" height="40" as="geometry" />
        </mxCell>
        <mxCell id="hDKh7NUV8Eu-Q5h1_q7I-2" value="&lt;span style=&quot;font-size: 14px;&quot;&gt;Ввести адрес, &lt;br style=&quot;font-size: 14px;&quot;&gt;даты заезда и выезда&lt;/span&gt;" style="shape=parallelogram;perimeter=parallelogramPerimeter;whiteSpace=wrap;html=1;fixedSize=1;shadow=0;fontSize=14;fontStyle=1;fillColor=#FFBF78;strokeWidth=2;fontColor=#023253;" vertex="1" parent="WIyWlLk6GJQsqaUBKTNV-1">
          <mxGeometry x="289" y="250" width="230" height="60" as="geometry" />
        </mxCell>
        <mxCell id="hDKh7NUV8Eu-Q5h1_q7I-3" value="&lt;span style=&quot;font-size: 14px;&quot;&gt;Выбрать отель из предложенного списка&lt;/span&gt;" style="shape=process;whiteSpace=wrap;html=1;backgroundOutline=1;fontSize=14;fontStyle=1;fillColor=#FFBF78;strokeWidth=2;fontColor=#023253;" vertex="1" parent="WIyWlLk6GJQsqaUBKTNV-1">
          <mxGeometry x="274" y="370" width="260" height="60" as="geometry" />
        </mxCell>
        <mxCell id="hDKh7NUV8Eu-Q5h1_q7I-4" value="" style="endArrow=block;html=1;exitX=0.5;exitY=1;exitDx=0;exitDy=0;endFill=0;fillColor=#fff2cc;strokeWidth=2;" edge="1" parent="WIyWlLk6GJQsqaUBKTNV-1" source="hDKh7NUV8Eu-Q5h1_q7I-2" target="hDKh7NUV8Eu-Q5h1_q7I-3">
          <mxGeometry width="50" height="50" relative="1" as="geometry">
            <mxPoint x="574" y="500" as="sourcePoint" />
            <mxPoint x="624" y="450" as="targetPoint" />
          </mxGeometry>
        </mxCell>
        <mxCell id="hDKh7NUV8Eu-Q5h1_q7I-5" value="&lt;span style=&quot;font-size: 14px;&quot;&gt;Выбрать номер&lt;/span&gt;" style="shape=process;whiteSpace=wrap;html=1;backgroundOutline=1;fontSize=14;fontStyle=1;fillColor=#FFBF78;strokeWidth=2;fontColor=#023253;" vertex="1" parent="WIyWlLk6GJQsqaUBKTNV-1">
          <mxGeometry x="274" y="490" width="280" height="60" as="geometry" />
        </mxCell>
        <mxCell id="hDKh7NUV8Eu-Q5h1_q7I-7" value="&lt;span style=&quot;font-size: 14px;&quot;&gt;Номер подходит?&lt;/span&gt;" style="html=1;whiteSpace=wrap;aspect=fixed;shape=isoRectangle;fontSize=14;fontStyle=1;fillColor=#FFBF78;strokeWidth=2;fontColor=#023253;" vertex="1" parent="WIyWlLk6GJQsqaUBKTNV-1">
          <mxGeometry x="329" y="590" width="150" height="90" as="geometry" />
        </mxCell>
        <mxCell id="hDKh7NUV8Eu-Q5h1_q7I-9" value="&lt;span style=&quot;font-size: 14px;&quot;&gt;Забронировать: ввести имя, фамилию и адрес эл. почты&lt;/span&gt;" style="shape=parallelogram;perimeter=parallelogramPerimeter;whiteSpace=wrap;html=1;fixedSize=1;fontSize=14;fontStyle=1;fillColor=#FFBF78;strokeWidth=2;fontColor=#023253;" vertex="1" parent="WIyWlLk6GJQsqaUBKTNV-1">
          <mxGeometry x="274" y="720" width="260" height="60" as="geometry" />
        </mxCell>
        <mxCell id="hDKh7NUV8Eu-Q5h1_q7I-14" value="&lt;h1&gt;&lt;font style=&quot;font-size: 20px&quot; color=&quot;#023253&quot;&gt;Алгоритм бронирования отеля&lt;/font&gt;&lt;/h1&gt;&lt;p class=&quot;MsoNormal&quot; style=&quot;margin-bottom: 0cm ; margin-bottom: 0.0001pt ; line-height: normal&quot;&gt;&lt;span style=&quot;font-size: 10.5pt ; font-family: &amp;#34;arial&amp;#34; , sans-serif ; color: #202122 ; background: white&quot;&gt;&lt;i&gt;Т.к. алгоритм – это конечная совокупность точно&amp;nbsp;заданных правил решения задачи, то, строго говоря, приведенный&amp;nbsp;набор инструкций, нельзя назвать алгоритмом ввиду недостаточного охвата всех&amp;nbsp;ситуаций,&amp;nbsp; возникающих при бронировании.&lt;/i&gt;&lt;/span&gt;&lt;/p&gt;" style="text;html=1;strokeColor=none;fillColor=none;spacing=5;spacingTop=-20;whiteSpace=wrap;overflow=hidden;rounded=0;shadow=0;align=center;" vertex="1" parent="WIyWlLk6GJQsqaUBKTNV-1">
          <mxGeometry x="20" y="10" width="780" height="120" as="geometry" />
        </mxCell>
        <mxCell id="hDKh7NUV8Eu-Q5h1_q7I-15" value="" style="endArrow=block;html=1;exitX=0.5;exitY=1;exitDx=0;exitDy=0;endFill=0;fillColor=#fff2cc;strokeWidth=2;entryX=0.462;entryY=-0.028;entryDx=0;entryDy=0;entryPerimeter=0;" edge="1" parent="WIyWlLk6GJQsqaUBKTNV-1" source="hDKh7NUV8Eu-Q5h1_q7I-3" target="hDKh7NUV8Eu-Q5h1_q7I-5">
          <mxGeometry width="50" height="50" relative="1" as="geometry">
            <mxPoint x="414" y="320" as="sourcePoint" />
            <mxPoint x="414" y="380" as="targetPoint" />
          </mxGeometry>
        </mxCell>
        <mxCell id="hDKh7NUV8Eu-Q5h1_q7I-16" value="" style="endArrow=block;html=1;endFill=0;fillColor=#fff2cc;strokeWidth=2;entryX=0.498;entryY=0.016;entryDx=0;entryDy=0;entryPerimeter=0;exitX=0.463;exitY=0.992;exitDx=0;exitDy=0;exitPerimeter=0;" edge="1" parent="WIyWlLk6GJQsqaUBKTNV-1" source="hDKh7NUV8Eu-Q5h1_q7I-5" target="hDKh7NUV8Eu-Q5h1_q7I-7">
          <mxGeometry width="50" height="50" relative="1" as="geometry">
            <mxPoint x="424" y="330" as="sourcePoint" />
            <mxPoint x="424" y="390" as="targetPoint" />
            <Array as="points">
              <mxPoint x="404" y="570" />
            </Array>
          </mxGeometry>
        </mxCell>
        <mxCell id="hDKh7NUV8Eu-Q5h1_q7I-17" value="" style="rounded=0;html=1;jettySize=auto;orthogonalLoop=1;fontSize=11;endArrow=block;endFill=0;endSize=8;strokeWidth=2;shadow=0;labelBackgroundColor=none;edgeStyle=orthogonalEdgeStyle;fillColor=#fff2cc;exitX=1;exitY=0.491;exitDx=0;exitDy=0;exitPerimeter=0;entryX=1.002;entryY=0.552;entryDx=0;entryDy=0;entryPerimeter=0;" edge="1" parent="WIyWlLk6GJQsqaUBKTNV-1" source="hDKh7NUV8Eu-Q5h1_q7I-7" target="hDKh7NUV8Eu-Q5h1_q7I-5">
          <mxGeometry relative="1" as="geometry">
            <mxPoint x="570" y="480" as="sourcePoint" />
            <mxPoint x="580" y="500" as="targetPoint" />
            <Array as="points">
              <mxPoint x="590" y="634" />
              <mxPoint x="590" y="523" />
            </Array>
          </mxGeometry>
        </mxCell>
        <mxCell id="hDKh7NUV8Eu-Q5h1_q7I-18" value="Нет" style="text;html=1;strokeColor=none;fillColor=none;align=center;verticalAlign=middle;whiteSpace=wrap;rounded=0;shadow=0;fontSize=14;fontColor=#023253;" vertex="1" parent="WIyWlLk6GJQsqaUBKTNV-1">
          <mxGeometry x="514" y="610" width="40" height="20" as="geometry" />
        </mxCell>
        <mxCell id="hDKh7NUV8Eu-Q5h1_q7I-19" value="" style="endArrow=block;html=1;endFill=0;fillColor=#fff2cc;strokeWidth=2;exitX=0.494;exitY=0.988;exitDx=0;exitDy=0;exitPerimeter=0;rounded=0;entryX=0.5;entryY=0;entryDx=0;entryDy=0;" edge="1" parent="WIyWlLk6GJQsqaUBKTNV-1" source="hDKh7NUV8Eu-Q5h1_q7I-7" target="hDKh7NUV8Eu-Q5h1_q7I-9">
          <mxGeometry width="50" height="50" relative="1" as="geometry">
            <mxPoint x="413.6400000000001" y="559.52" as="sourcePoint" />
            <mxPoint x="403" y="698" as="targetPoint" />
            <Array as="points" />
          </mxGeometry>
        </mxCell>
        <mxCell id="hDKh7NUV8Eu-Q5h1_q7I-20" value="" style="endArrow=block;html=1;endFill=0;fillColor=#fff2cc;strokeWidth=2;rounded=0;entryX=0.486;entryY=0.001;entryDx=0;entryDy=0;entryPerimeter=0;" edge="1" parent="WIyWlLk6GJQsqaUBKTNV-1" target="WIyWlLk6GJQsqaUBKTNV-11">
          <mxGeometry width="50" height="50" relative="1" as="geometry">
            <mxPoint x="402" y="781" as="sourcePoint" />
            <mxPoint x="450" y="710" as="targetPoint" />
            <Array as="points">
              <mxPoint x="402" y="800" />
            </Array>
          </mxGeometry>
        </mxCell>
        <mxCell id="hDKh7NUV8Eu-Q5h1_q7I-21" value="Да" style="text;html=1;strokeColor=none;fillColor=none;align=center;verticalAlign=middle;whiteSpace=wrap;rounded=0;shadow=0;fontSize=14;fontColor=#023253;" vertex="1" parent="WIyWlLk6GJQsqaUBKTNV-1">
          <mxGeometry x="410" y="680" width="40" height="20" as="geometry" />
        </mxCell>
      </root>
    </mxGraphModel>
  </diagram>
</mxfile>
